<?xml version="1.0" encoding="utf-8"?>
<svg xmlns="http://www.w3.org/2000/svg" viewBox="0 0 500 500" xmlns:bx="https://boxy-svg.com">
  <defs>
    <bx:export>
      <bx:file format="png" href="#object-0"/>
    </bx:export>
  </defs>
  <rect width="465.763" height="200.775" fill="#f5f5f5" x="83.172" y="29.733" transform="matrix(0.999998, -0.001991, 0.001991, 0.999998, -62.1199, 25.3701)" style="" id="object-0"/>
  <line x1="41.342" y1="152.689" x2="467.111" y2="151.702" stroke="#3DDC84" stroke-width="4" style="transform-origin: 206.268px 152.305px;"/>
  <line x1="61.332" y1="152.383" x2="61.332" y2="112.321" stroke="#3DDC84" stroke-width="2" style="transform-box: fill-box; transform-origin: 50% 50%;" transform="matrix(0.999998, -0.001991, 0.001991, 0.999998, -0.000007, 0.000029)"/>
  <circle cx="242.859" cy="324.049" r="3.205" fill="#3DDC84" transform="matrix(0.999998, -0.001991, 0.001991, 0.999998, -182.131262, -171.181913)" style=""/>
  <line x1="91.456" y1="152.323" x2="91.457" y2="192.384" stroke="#3DDC84" stroke-width="2" style="transform-box: fill-box; transform-origin: 50% 50%;" transform="matrix(0.999998, -0.001991, 0.001991, 0.999998, 0, 0)"/>
  <circle cx="317.856" cy="324.049" r="3.205" fill="#3DDC84" transform="matrix(0.999998, -0.001991, 0.001991, 0.999998, -227.084832, -171.093047)" style=""/>
  <line x1="121.422" y1="152.262" x2="121.422" y2="112.2" stroke="#3DDC84" stroke-width="2" style="transform-box: fill-box; transform-origin: 50% 50%;" transform="matrix(0.999997, -0.001991, 0.001991, 0.999998, 0.000087, 0.000029)"/>
  <circle cx="392.856" cy="324.049" r="3.205" fill="#3DDC84" transform="matrix(0.999998, -0.001991, 0.001991, 0.999998, -272.039208, -171.003079)" style=""/>
  <line x1="151.508" y1="152.203" x2="151.587" y2="192.263" stroke="#3DDC84" stroke-width="2" style="transform-origin: 151.671px 172.417px;"/>
  <circle cx="467.856" cy="324.049" r="3.205" fill="#3DDC84" transform="matrix(0.999998, -0.001991, 0.001991, 0.999998, -316.993585, -170.914112)" style=""/>
  <line x1="181.552" y1="152.143" x2="181.473" y2="112.081" stroke="#3DDC84" stroke-width="2" style="transform-origin: 181.512px 132.112px;"/>
  <circle cx="542.856" cy="324.049" r="3.205" fill="#3DDC84" transform="matrix(0.999998, -0.001991, 0.001991, 0.999998, -361.947969, -170.824144)" style=""/>
  <line x1="211.64" y1="152.084" x2="211.639" y2="192.144" stroke="#3DDC84" stroke-width="2" style="transform-box: fill-box; transform-origin: 50% 50%;" transform="matrix(0.999998, -0.001991, 0.001991, 0.999998, 0, 0)"/>
  <circle cx="617.856" cy="324.049" r="3.205" fill="#3DDC84" transform="matrix(0.999998, -0.001991, 0.001991, 0.999998, -406.902345, -170.735277)" style=""/>
  <line x1="241.644" y1="152.022" x2="241.564" y2="111.961" stroke="#3DDC84" stroke-width="2" style="transform-origin: 241.479px 131.624px;"/>
  <circle cx="692.856" cy="324.049" r="3.205" fill="#3DDC84" transform="matrix(0.999998, -0.001991, 0.001991, 0.999998, -451.856722, -170.645309)" style=""/>
  <line x1="271.728" y1="151.964" x2="271.727" y2="192.025" stroke="#3DDC84" stroke-width="2" style="transform-box: fill-box; transform-origin: 50% 50%;" transform="matrix(0.999998, -0.001991, 0.001991, 0.999998, 0, 0)"/>
  <circle cx="767.856" cy="324.049" r="3.205" fill="#3DDC84" transform="matrix(0.999998, -0.001991, 0.001991, 0.999998, -496.811098, -170.555341)" style=""/>
  <line x1="301.828" y1="152.083" x2="301.502" y2="112.022" stroke="#3DDC84" stroke-width="2" style="transform-origin: 330.938px 136.932px;" transform="matrix(0.999981, 0.006136, -0.006136, 0.999981, 0, 0)"/>
  <circle cx="842.856" cy="324.049" r="3.205" fill="#3DDC84" transform="matrix(0.999998, -0.001991, 0.001991, 0.999998, -541.765474, -170.466474)" style=""/>
  <text x="97.291" y="81.742" text-anchor="middle" font-family="Arial" font-size="12" font-weight="bold" style="white-space: pre; font-size: 4.8px;" transform="matrix(0.999998, -0.001991, 0.001991, 0.999998, -36.1765, 22.7605)">Android 1.0</text>
  <text x="97.291" y="87.75" text-anchor="middle" font-family="Arial" font-size="10" style="white-space: pre; font-size: 4px;" transform="matrix(0.999998, -0.001991, 0.001991, 0.999998, -36.1765, 22.7605)">2008年</text>
  <text x="127.335" y="177.888" text-anchor="middle" font-family="Arial" font-size="12" font-weight="bold" style="white-space: pre; font-size: 4.8px;" transform="matrix(0.999998, -0.001991, 0.001991, 0.999998, -36.1765, 22.7605)">Android 2.0 Eclair</text>
  <text x="127.335" y="183.898" text-anchor="middle" font-family="Arial" font-size="10" style="white-space: pre; font-size: 4px;" transform="matrix(0.999998, -0.001991, 0.001991, 0.999998, -36.1765, 22.7605)">2009年</text>
  <text x="157.38" y="73.729" text-anchor="middle" font-family="Arial" font-size="12" font-weight="bold" style="white-space: pre; font-size: 4.8px;" transform="matrix(0.999998, -0.001991, 0.001991, 0.999998, -36.1765, 24.2239)">Android 3.0/4.0</text>
  <text x="157.38" y="79.739" text-anchor="middle" font-family="Arial" font-size="10" style="white-space: pre; font-size: 4px;" transform="matrix(0.999998, -0.001991, 0.001991, 0.999998, -36.1765, 24.2239)">2011年</text>
  <text x="187.426" y="177.888" text-anchor="middle" font-family="Arial" font-size="12" font-weight="bold" style="white-space: pre; font-size: 4.8px;" transform="matrix(0.999998, -0.001991, 0.001991, 0.999998, -36.1765, 22.7605)">Android 5.0 Lollipop</text>
  <text x="187.426" y="183.898" text-anchor="middle" font-family="Arial" font-size="10" style="white-space: pre; font-size: 4px;" transform="matrix(0.999998, -0.001991, 0.001991, 0.999998, -36.1765, 22.7605)">2014年</text>
  <text x="217.471" y="73.729" text-anchor="middle" font-family="Arial" font-size="12" font-weight="bold" style="white-space: pre; font-size: 4.8px;" transform="matrix(0.999998, -0.001991, 0.001991, 0.999998, -36.1765, 24.2239)">Android 6.0 Marshmallow</text>
  <text x="217.471" y="79.739" text-anchor="middle" font-family="Arial" font-size="10" style="white-space: pre; font-size: 4px;" transform="matrix(0.999998, -0.001991, 0.001991, 0.999998, -36.1765, 24.2239)">2015年</text>
  <text x="247.517" y="177.888" text-anchor="middle" font-family="Arial" font-size="12" font-weight="bold" style="white-space: pre; font-size: 4.8px;" transform="matrix(0.999998, -0.001991, 0.001991, 0.999998, -36.1765, 22.7605)">Android 7.0 Nougat</text>
  <text x="247.517" y="183.898" text-anchor="middle" font-family="Arial" font-size="10" style="white-space: pre; font-size: 4px;" transform="matrix(0.999998, -0.001991, 0.001991, 0.999998, -36.1765, 22.7605)">2016年</text>
  <text x="277.562" y="73.729" text-anchor="middle" font-family="Arial" font-size="12" font-weight="bold" style="white-space: pre; font-size: 4.8px;" transform="matrix(0.999998, -0.001991, 0.001991, 0.999998, -36.1765, 24.2239)">Android 8.0 Oreo</text>
  <text x="277.562" y="79.739" text-anchor="middle" font-family="Arial" font-size="10" style="white-space: pre; font-size: 4px;" transform="matrix(0.999998, -0.001991, 0.001991, 0.999998, -36.1765, 24.2239)">2017年</text>
  <text x="307.608" y="177.888" text-anchor="middle" font-family="Arial" font-size="12" font-weight="bold" style="white-space: pre; font-size: 4.8px;" transform="matrix(0.999998, -0.001991, 0.001991, 0.999998, -36.1765, 22.7605)">Android 9 Pie</text>
  <text x="307.608" y="183.898" text-anchor="middle" font-family="Arial" font-size="10" style="white-space: pre; font-size: 4px;" transform="matrix(0.999998, -0.001991, 0.001991, 0.999998, -36.1765, 22.7605)">2018年</text>
  <text x="337.653" y="73.729" text-anchor="middle" font-family="Arial" font-size="12" font-weight="bold" style="white-space: pre; font-size: 4.8px;" transform="matrix(0.999998, -0.001991, 0.001991, 0.999998, -36.1765, 24.2239)">Android 10</text>
  <text x="337.653" y="79.739" text-anchor="middle" font-family="Arial" font-size="10" style="white-space: pre; font-size: 4px;" transform="matrix(0.999998, -0.001991, 0.001991, 0.999998, -36.1765, 24.2239)">2019年</text>
  <text x="217.471" y="49.693" text-anchor="middle" font-family="Arial" font-size="24" font-weight="bold" fill="#3DDC84" style="white-space: pre; font-size: 9.6px;" transform="matrix(0.999998, -0.001991, 0.001991, 0.999998, 47.1702, 25.1083)">Android 系统发展时间线</text>
  <g transform="matrix(0.200303, -0.000399, 0.000399, 0.200303, 33.1534, 64.3052)" style="">
    <path d="M30,10 C15,10 3,22 3,37 L3,87 C3,102 15,114 30,114 L94,114 C109,114 121,102 121,87 L121,37 C121,22 109,10 94,10 L30,10 Z" fill="#3DDC84"/>
    <circle cx="44" cy="45" r="5" fill="white"/>
    <circle cx="82" cy="45" r="5" fill="white"/>
    <path d="M33,61 L33,81 C33,86 37,90 42,90 C47,90 51,86 51,81 L51,61 L33,61 Z" fill="white"/>
    <path d="M75,61 L75,81 C75,86 79,90 84,90 C89,90 93,86 93,81 L93,61 L75,61 Z" fill="white"/>
    <path d="M35,61 L91,61 C96,61 100,57 100,52 C100,47 96,43 91,43 L35,43 C30,43 26,47 26,52 C26,57 30,61 35,61 Z" fill="white"/>
  </g>
  <text style="white-space: pre; fill: rgb(51, 51, 51); font-family: Arial, sans-serif; font-size: 11.2px;" x="-8.942" y="105.415"> </text>
  <text style="white-space: pre; fill: rgb(51, 51, 51); font-family: Arial, sans-serif; font-size: 11.2px;" x="-5.604" y="145.09"> </text>
  <line x1="331.293" y1="154.045" x2="331.292" y2="194.107" stroke="#3DDC84" stroke-width="2" style="transform-origin: 331.293px 174.076px;" transform="matrix(0.999998, -0.001991, 0.001991, 0.999998, 0, 0)"/>
  <circle cx="767.856" cy="324.049" r="3.205" fill="#3DDC84" transform="matrix(0.999998, -0.001991, 0.001991, 0.999998, -437.466098, -170.706941)" style=""/>
  <text x="337.653" y="73.729" text-anchor="middle" font-family="Arial" font-size="12" font-weight="bold" style="white-space: pre; font-size: 4.8px;" transform="matrix(0.999998, -0.001991, 0.001991, 0.999998, -6.76208, 127.014)">Android 11</text>
  <text x="337.653" y="79.739" text-anchor="middle" font-family="Arial" font-size="10" style="white-space: pre; font-size: 4px;" transform="matrix(0.999998, -0.001991, 0.001991, 0.999998, -6.76208, 127.014)">2020年</text>
  <line x1="361.134" y1="152.298" x2="360.808" y2="112.237" stroke="#3DDC84" stroke-width="2" style="transform-origin: 390.244px 137.147px;" transform="matrix(0.999981, 0.006136, -0.006136, 0.999981, 0, 0)"/>
  <circle cx="842.856" cy="324.049" r="3.205" fill="#3DDC84" transform="matrix(0.999998, -0.001991, 0.001991, 0.999998, -482.459474, -170.251274)" style=""/>
  <text x="337.653" y="73.729" text-anchor="middle" font-family="Arial" font-size="12" font-weight="bold" style="white-space: pre; font-size: 4.8px;" transform="matrix(0.999998, -0.001991, 0.001991, 0.999998, 23.1293, 24.439)">Android 12</text>
  <text x="337.653" y="79.739" text-anchor="middle" font-family="Arial" font-size="10" style="white-space: pre; font-size: 4px;" transform="matrix(0.999998, -0.001991, 0.001991, 0.999998, 23.1293, 24.439)">2021年</text>
  <line x1="391.714" y1="154.142" x2="391.713" y2="194.203" stroke="#3DDC84" stroke-width="2" style="transform-origin: 391.714px 174.174px;" transform="matrix(0.999998, -0.001991, 0.001991, 0.999998, 0, 0)"/>
  <circle cx="767.856" cy="324.049" r="3.205" fill="#3DDC84" transform="matrix(0.999998, -0.001991, 0.001991, 0.999998, -377.045098, -170.609641)" style=""/>
  <text x="337.653" y="73.729" text-anchor="middle" font-family="Arial" font-size="12" font-weight="bold" style="white-space: pre; font-size: 4.8px;" transform="matrix(0.999998, -0.001991, 0.001991, 0.999998, 53.6588, 127.111)">Android 13</text>
  <text x="337.653" y="79.739" text-anchor="middle" font-family="Arial" font-size="10" style="white-space: pre; font-size: 4px;" transform="matrix(0.999998, -0.001991, 0.001991, 0.999998, 53.6588, 127.111)">2022年</text>
  <line x1="421.656" y1="152.089" x2="421.33" y2="112.028" stroke="#3DDC84" stroke-width="2" style="transform-origin: 450.766px 136.937px;" transform="matrix(0.999981, 0.006136, -0.006136, 0.999981, 0, 0)"/>
  <circle cx="842.856" cy="324.049" r="3.205" fill="#3DDC84" transform="matrix(0.999998, -0.001991, 0.001991, 0.999998, -421.937474, -170.460574)" style=""/>
  <text x="337.653" y="73.729" text-anchor="middle" font-family="Arial" font-size="12" font-weight="bold" style="white-space: pre; font-size: 4.8px;" transform="matrix(0.999998, -0.001991, 0.001991, 0.999998, 83.6507, 24.2297)">Android 14</text>
  <text x="337.653" y="79.739" text-anchor="middle" font-family="Arial" font-size="10" style="white-space: pre; font-size: 4px;" transform="matrix(0.999998, -0.001991, 0.001991, 0.999998, 83.6507, 24.2297)">2023年</text>
  <line x1="451.444" y1="154.396" x2="451.444" y2="194.456" stroke="#3DDC84" stroke-width="2" style="transform-origin: 451.445px 174.428px;" transform="matrix(0.999998, -0.001991, 0.001991, 0.999998, 0, 0)"/>
  <circle cx="767.856" cy="324.049" r="3.205" fill="#3DDC84" transform="matrix(0.999998, -0.001991, 0.001991, 0.999998, -317.315098, -170.356441)" style=""/>
  <text x="337.653" y="73.729" text-anchor="middle" font-family="Arial" font-size="12" font-weight="bold" style="white-space: pre; font-size: 4.8px;" transform="matrix(0.999998, -0.001991, 0.001991, 0.999998, 113.39, 127.364)">Android 15</text>
  <text x="337.653" y="79.739" text-anchor="middle" font-family="Arial" font-size="10" style="white-space: pre; font-size: 4px;" transform="matrix(0.999998, -0.001991, 0.001991, 0.999998, 113.39, 127.364)">2024年</text>
  <text x="97.291" y="81.742" text-anchor="middle" font-family="Arial" font-size="12" font-weight="bold" style="white-space: pre; font-size: 4.8px;" transform="matrix(0.999998, -0.001991, 0.001991, 0.999998, -4.71632, 138.009)">ARM</text>
  <line x1="109.155" y1="217.362" x2="149.337" y2="217.486" stroke="#3DDC84" stroke-width="4" style="transform-origin: 124.72px 217.411px;"/>
  <text x="97.291" y="81.742" text-anchor="middle" font-family="Arial" font-size="12" font-weight="bold" style="white-space: pre; font-size: 4.8px;" transform="matrix(0.999998, -0.001991, 0.001991, 0.999998, -4.77537, 149.867)">X86</text>
  <line x1="109.096" y1="229.219" x2="149.278" y2="229.343" stroke="#3DDC84" stroke-width="4" style="transform-origin: 124.661px 229.268px;"/>
  <text x="97.291" y="81.742" text-anchor="middle" font-family="Arial" font-size="12" font-weight="bold" style="white-space: pre; font-size: 4.8px;" transform="matrix(0.999998, -0.001991, 0.001991, 0.999998, 145.746, 138.398)">MIPS</text>
  <line x1="259.618" y1="217.75" x2="299.799" y2="217.874" stroke-width="4" style="stroke: rgb(0, 83, 250); transform-origin: 275.183px 217.799px;"/>
  <text x="97.291" y="81.742" text-anchor="middle" font-family="Arial" font-size="12" font-weight="bold" style="white-space: pre; font-size: 4.8px;" transform="matrix(0.999998, -0.001991, 0.001991, 0.999998, 145.687, 150.255)">RISCV</text>
  <line x1="259.559" y1="229.608" x2="299.74" y2="229.732" stroke-width="4" style="stroke: rgb(249, 215, 0); transform-origin: 275.124px 229.657px;"/>
  <line x1="136.689" y1="145.107" x2="271.133" y2="144.816" stroke-width="4" style="stroke: rgb(0, 83, 250); transform-origin: 188.768px 144.938px;"/>
  <line x1="406.819" y1="158.011" x2="467.285" y2="157.895" stroke-width="4" style="stroke: rgb(249, 215, 0); transform-origin: 430.241px 157.966px;"/>
  <text x="97.291" y="81.742" text-anchor="middle" font-family="Arial" font-size="12" font-weight="bold" style="white-space: pre; font-size: 4.8px;" transform="matrix(0.999998, -0.001991, 0.001991, 0.999998, 286.058, 138.51)">LOONGARCH</text>
  <line x1="407.543" y1="217.861" x2="447.724" y2="217.986" stroke-width="4" style="stroke: rgb(249, 0, 0); transform-origin: 423.108px 217.911px;"/>
  <line x1="362.3" y1="144.632" x2="391.091" y2="144.757" stroke-width="4" style="stroke: rgb(249, 0, 0); transform-origin: 373.453px 144.681px;"/>
  <line x1="451.139" y1="145.455" x2="466.818" y2="145.498" stroke-width="4" style="stroke: rgb(249, 0, 0); transform-origin: 457.212px 145.472px;"/>
  <line x1="301.568" y1="158.004" x2="329.154" y2="158.036" stroke-width="4" style="stroke: rgb(249, 215, 0); transform-origin: 312.254px 158.017px;"/>
</svg>